<svg width="69" height="30" viewBox="0 0 69 30" fill="none" xmlns="http://www.w3.org/2000/svg">
<path fill-rule="evenodd" clip-rule="evenodd" d="M42.2812 25.1607C38.2975 28.0732 32.503 29.6249 27.5053 29.6249C20.5036 29.6249 14.2263 27.0705 9.44586 22.8211C9.08373 22.4869 9.39756 22.0334 9.85628 22.2959C14.9989 25.2562 21.3487 27.0228 27.9157 27.0228C32.334 27.0228 37.211 26.1156 41.7018 24.2296C42.3777 23.9671 42.933 24.6832 42.2812 25.1607Z" fill="white"/>
<path fill-rule="evenodd" clip-rule="evenodd" d="M44.5573 23.049C44.0412 22.4746 41.1167 22.7725 39.8141 22.9214C39.4208 22.9639 39.3471 22.6661 39.7158 22.4533C42.0505 21.028 45.8599 21.4534 46.3022 21.9215C46.7446 22.3895 46.1793 25.7083 43.992 27.2826C43.648 27.5166 43.3285 27.389 43.476 27.0699C43.9674 26.0061 45.0734 23.6447 44.5573 23.049Z" fill="white"/>
<path fill-rule="evenodd" clip-rule="evenodd" d="M8.43596 21.2197C8.29092 21.3366 8.09755 21.36 7.92834 21.2664C7.22737 20.7054 7.08233 20.4249 6.69558 19.8872C5.53534 21.0327 4.68932 21.3833 3.19068 21.3833C1.40196 21.3833 0 20.308 0 18.1808C0 16.4977 0.942698 15.3756 2.27215 14.8146C3.43239 14.3237 5.05191 14.2302 6.28466 14.0899V13.8328C6.28466 13.3419 6.33301 12.7574 6.01877 12.3367C5.75289 11.9626 5.26945 11.799 4.83436 11.799C4.01252 11.799 3.28736 12.1964 3.11816 13.038C3.06982 13.225 2.94896 13.412 2.75559 13.412L0.700982 13.2016C0.53178 13.1548 0.338405 13.038 0.386748 12.7808C0.870181 10.3497 3.11816 9.625 5.14859 9.625C6.18798 9.625 7.5416 9.88214 8.36347 10.6536C9.40279 11.5886 9.3061 12.8509 9.3061 14.2068V17.4094C9.3061 18.3678 9.71703 18.7886 10.1038 19.3262C10.2488 19.5132 10.273 19.747 10.1038 19.8639C9.64454 20.2145 8.87107 20.8691 8.43596 21.2197ZM6.30903 16.1937C6.30903 16.9885 6.3332 17.6664 5.92228 18.3911C5.58387 18.9755 5.0521 19.3261 4.4478 19.3261C3.62596 19.3261 3.14253 18.7184 3.14253 17.83C3.14253 16.0768 4.76203 15.7495 6.30903 15.7495V16.1937ZM36.3784 21.2197C36.2333 21.3366 36.0399 21.36 35.8708 21.2664C35.1698 20.7054 35.0247 20.4249 34.638 19.8872C33.4777 21.0327 32.6318 21.3833 31.1331 21.3833C29.3444 21.3833 27.9424 20.308 27.9424 18.1808C27.9424 16.4977 28.8851 15.3756 30.2146 14.8146C31.3748 14.3237 32.9943 14.2302 34.2271 14.0899V13.8328C34.2271 13.3419 34.2755 12.7574 33.9612 12.3367C33.6953 11.9626 33.2119 11.799 32.7767 11.799C31.9549 11.799 31.2298 12.1964 31.0606 13.038C31.0123 13.225 30.8914 13.412 30.698 13.412L28.6434 13.2016C28.4742 13.1548 28.2809 13.038 28.3292 12.7808C28.8126 10.3497 31.0606 9.625 33.091 9.625C34.1304 9.625 35.484 9.88214 36.3059 10.6536C37.3452 11.5886 37.2485 12.8509 37.2485 14.2068V17.4094C37.2485 18.3678 37.6595 18.7886 38.0463 19.3262C38.1912 19.5132 38.2154 19.747 38.0463 19.8639C37.587 20.2145 36.8135 20.8691 36.3784 21.2197ZM34.2272 16.1937C34.2272 16.9885 34.2514 17.6664 33.8404 18.3911C33.5021 18.9755 32.9703 19.3261 32.366 19.3261C31.5441 19.3261 31.0607 18.7184 31.0607 17.83C31.0607 16.0768 32.6802 15.7495 34.2272 15.7495V16.1937ZM62.6291 21.2432H60.5019C60.2844 21.2198 60.1152 21.0561 60.1152 20.8691V10.2796C60.1394 10.0926 60.3086 9.92894 60.5261 9.92894H62.5082C62.7016 9.92894 62.8466 10.0692 62.895 10.2328V11.8458H62.9433C63.5476 10.3965 64.3694 9.71855 65.844 9.71855C66.7866 9.71855 67.7293 10.0458 68.3336 10.9575C68.8896 11.7991 68.8896 13.225 68.8896 14.2536V20.9159C68.8654 21.1028 68.6962 21.2432 68.4787 21.2432H66.3516C66.1582 21.2198 65.9889 21.0795 65.9647 20.9159V15.1653C65.9647 13.9964 66.1098 12.3133 64.6353 12.3133C64.1278 12.3133 63.6443 12.6406 63.4026 13.1549C63.1125 13.8094 63.0642 14.4406 63.0642 15.1653V20.8691C63.04 21.0795 62.8466 21.2432 62.6291 21.2432ZM53.6612 11.8926C52.0901 11.8926 51.9934 13.9731 51.9934 15.2588C51.9934 16.5445 51.9692 19.3029 53.637 19.3029C55.2807 19.3029 55.3774 17.0822 55.3774 15.7263C55.3774 14.838 55.3291 13.7627 55.0632 12.9212C54.8215 12.1731 54.338 11.8926 53.6612 11.8926ZM53.6614 9.71854C56.8278 9.71854 58.5441 12.3367 58.5441 15.6795C58.5441 18.9055 56.6586 21.4769 53.6614 21.4769C50.5674 21.4769 48.8754 18.8588 48.8754 15.586C48.8512 12.2899 50.5674 9.71854 53.6614 9.71854ZM14.2615 21.2431H12.1344C11.941 21.2197 11.7717 21.0795 11.7476 20.8924V10.3263C11.7476 10.1159 11.941 9.9523 12.1585 9.9523H14.1406C14.3582 9.9523 14.5031 10.1159 14.5273 10.3029V11.6822H14.5757C15.0833 10.3497 16.0743 9.71854 17.3796 9.71854C18.7091 9.71854 19.5551 10.3497 20.1352 11.6822C20.6428 10.3497 21.8272 9.71854 23.0842 9.71854C23.9785 9.71854 24.9454 10.0692 25.5497 10.8874C26.2265 11.7757 26.0814 13.0614 26.0814 14.2068V20.8924C26.0814 21.1028 25.8881 21.2665 25.6706 21.2665H23.5676C23.35 21.2431 23.1808 21.0795 23.1808 20.8924V15.2821C23.1808 14.838 23.2292 13.7159 23.1325 13.2951C22.9633 12.5938 22.5041 12.3835 21.8756 12.3835C21.368 12.3835 20.812 12.7107 20.5945 13.2484C20.3769 13.786 20.4011 14.6743 20.4011 15.2821V20.8924C20.4011 21.1028 20.2077 21.2665 19.9901 21.2665H17.863C17.6455 21.2431 17.4763 21.0795 17.4763 20.8924V15.2821C17.4763 14.1133 17.6697 12.3601 16.171 12.3601C14.6482 12.3601 14.6966 14.0432 14.6966 15.2821V20.8924C14.6724 21.0795 14.5031 21.2431 14.2615 21.2431ZM39.8108 11.8224V10.303C39.8108 10.0692 39.9799 9.92894 40.1975 9.92894H47.2073C47.4249 9.92894 47.6182 10.0926 47.6182 10.303V11.5887C47.6182 11.7991 47.4249 12.0796 47.0864 12.5471L43.4607 17.5497C44.8143 17.5263 46.2404 17.7133 47.449 18.3678C47.7149 18.5081 47.7874 18.7419 47.8116 18.9523V20.5652C47.8116 20.799 47.5698 21.0561 47.304 20.9159C45.1527 19.8172 42.2762 19.7003 39.9074 20.9392C39.6657 21.0561 39.3998 20.8224 39.3998 20.5886V19.0457C39.3998 18.812 39.3998 18.3912 39.6657 18.0172L43.8716 12.1965H40.2217C40.0041 12.1965 39.8108 12.0328 39.8108 11.8224Z" fill="white"/>
</svg>
