<svg width="27" height="30" viewBox="0 0 27 30" fill="none" xmlns="http://www.w3.org/2000/svg">
<g clip-path="url(#clip0_5322_10773)">
<path fill-rule="evenodd" clip-rule="evenodd" d="M14.8926 2.05979C16.548 0.00999325 18.8495 0 18.8495 0C18.8495 0 19.1918 1.92716 17.5472 3.78363C15.7912 5.76593 13.7952 5.44152 13.7952 5.44152C13.7952 5.44152 13.4205 3.88255 14.8926 2.05979Z" fill="white"/>
<path fill-rule="evenodd" clip-rule="evenodd" d="M13.9289 7.05139C14.7792 7.05139 16.357 5.95801 18.411 5.95801C21.9466 5.95801 23.3374 8.31159 23.3374 8.31159C23.3374 8.31159 20.6171 9.61272 20.6171 12.7699C20.6171 16.3315 24.0059 17.559 24.0059 17.559C24.0059 17.559 21.637 23.7966 18.4374 23.7966C16.9677 23.7966 15.8252 22.8701 14.2768 22.8701C12.6989 22.8701 11.1329 23.8312 10.113 23.8312C7.19123 23.8312 3.5 17.9142 3.5 13.1579C3.5 8.47841 6.62439 6.02357 9.55494 6.02357C11.4601 6.02357 12.9385 7.05139 13.9289 7.05139Z" fill="white"/>
</g>
<defs>
<clipPath id="clip0_5322_10773">
<rect width="26" height="30" fill="white" transform="translate(0.5)"/>
</clipPath>
</defs>
</svg>
