<svg width="65" height="22" viewBox="0 0 65 22" fill="none" xmlns="http://www.w3.org/2000/svg">
<g clip-path="url(#clip0_5322_10789)">
<path fill-rule="evenodd" clip-rule="evenodd" d="M16.0904 7.92763H8.62688V10.2357H13.9387C13.6795 13.4721 11.1179 14.8523 8.69991 14.8523C5.60629 14.8523 2.90682 12.2938 2.90682 8.70772C2.90682 5.21437 5.48015 2.52398 8.70667 2.52398C11.196 2.52398 12.6629 4.19203 12.6629 4.19203L14.2002 2.51859C14.2002 2.51859 12.227 0.209473 8.62812 0.209473C4.04529 0.209405 0.5 4.27504 0.5 8.66648C0.5 12.9696 3.83499 17.1656 8.74491 17.1656C13.0632 17.1656 16.2243 14.0561 16.2243 9.4579C16.2243 8.48776 16.0904 7.92763 16.0904 7.92763Z" fill="white"/>
<path fill-rule="evenodd" clip-rule="evenodd" d="M22.57 6.37555C19.4645 6.37555 17.2391 8.84564 17.2391 11.7264C17.2391 14.6499 19.3977 17.1658 22.6065 17.1658C25.5112 17.1658 27.891 14.907 27.891 11.7892C27.891 8.21588 25.1228 6.37555 22.57 6.37555ZM22.6009 8.49472C24.128 8.49472 25.5751 9.75089 25.5751 11.775C25.5751 13.7561 24.1341 15.0481 22.5939 15.0481C20.9014 15.0481 19.5663 13.669 19.5663 11.7593C19.5663 9.89048 20.8849 8.49472 22.6009 8.49472Z" fill="white"/>
<path fill-rule="evenodd" clip-rule="evenodd" d="M33.7289 6.37555C30.6235 6.37555 28.398 8.84564 28.398 11.7264C28.398 14.6499 30.5566 17.1658 33.7654 17.1658C36.6702 17.1658 39.0499 14.907 39.0499 11.7892C39.0499 8.21588 36.2817 6.37555 33.7289 6.37555ZM33.7598 8.49472C35.2869 8.49472 36.734 9.75089 36.734 11.775C36.734 13.7561 35.2931 15.0481 33.7528 15.0481C32.0604 15.0481 30.7252 13.669 30.7252 11.7593C30.7252 9.89048 32.0438 8.49472 33.7598 8.49472Z" fill="white"/>
<path fill-rule="evenodd" clip-rule="evenodd" d="M45.1412 6.37555C42.2988 6.37555 40.0646 8.87825 40.0646 11.6873C40.0646 14.8871 42.6548 17.009 45.0922 17.009C46.5993 17.009 47.4006 16.4076 47.9922 15.7172V16.7655C47.9922 18.5996 46.8845 19.6979 45.2126 19.6979C43.5973 19.6979 42.7872 18.4905 42.5056 17.8054L40.4734 18.6595C41.1944 20.192 42.6458 21.7902 45.2294 21.7902C48.0554 21.7902 50.2093 20.0007 50.2093 16.2476V6.56371H47.9923V7.59573C47.3106 6.85715 46.3783 6.37555 45.1412 6.37555ZM45.3469 8.45922C46.7405 8.45922 48.1714 9.6555 48.1714 11.6984C48.1714 13.7748 46.7435 14.9192 45.3161 14.9192C43.8008 14.9192 42.3908 13.6823 42.3908 11.7181C42.3908 9.67718 43.8552 8.45922 45.3469 8.45922Z" fill="white"/>
<path fill-rule="evenodd" clip-rule="evenodd" d="M59.6761 6.37555C57.0116 6.37555 54.7745 8.54973 54.7745 11.7579C54.7745 15.1525 57.2681 17.1658 59.9321 17.1658C62.1554 17.1658 63.52 15.9183 64.3344 14.8006L62.5179 13.561C62.0465 14.3113 61.2584 15.0446 59.9432 15.0446C58.4658 15.0446 57.7867 14.2149 57.3658 13.4112L64.412 10.4127L64.0461 9.5339C63.3655 7.81299 61.7774 6.37555 59.6761 6.37555ZM59.7679 8.44828C60.728 8.44828 61.419 8.97179 61.7125 9.59951L57.007 11.6167C56.8041 10.055 58.2466 8.44828 59.7679 8.44828Z" fill="white"/>
<path fill-rule="evenodd" clip-rule="evenodd" d="M51.7308 16.652H53.7598V0.723572H51.7308V16.652Z" fill="white"/>
</g>
<defs>
<clipPath id="clip0_5322_10789">
<rect width="64" height="22" fill="white" transform="translate(0.5)"/>
</clipPath>
</defs>
</svg>
