<svg width="33" height="28" viewBox="0 0 33 28" fill="none" xmlns="http://www.w3.org/2000/svg">
<mask id="mask0_5322_10779" style="mask-type:luminance" maskUnits="userSpaceOnUse" x="1" y="0" width="31" height="28">
<path fill-rule="evenodd" clip-rule="evenodd" d="M1.0072 0.39386H31.9939V27.6069H1.0072V0.39386Z" fill="white"/>
</mask>
<g mask="url(#mask0_5322_10779)">
<path fill-rule="evenodd" clip-rule="evenodd" d="M8.84556 17.4649C7.98286 17.4292 7.56964 17.3711 7.03499 17.3298C4.71067 18.6391 6.67205 20.3422 9.18773 20.0654C10.8079 19.8879 11.3995 19.1167 11.1994 18.4002C11.0671 17.9258 10.5335 17.5319 8.84556 17.4649Z" fill="white"/>
<path fill-rule="evenodd" clip-rule="evenodd" d="M8.01782 13.5051C9.19528 13.5051 9.80427 12.6881 9.80427 11.5398C9.80427 10.2842 9.09806 9.28412 7.78385 9.28412C6.63371 9.28412 5.94275 10.0654 5.94275 11.2116C5.94275 12.4984 6.67531 13.5051 8.01782 13.5051Z" fill="white"/>
<path fill-rule="evenodd" clip-rule="evenodd" d="M26.3407 17.3637C25.4934 17.3637 24.7795 16.886 23.9038 15.8269C22.5087 14.1204 21.3848 12.7498 21.3848 12.7498V14.9887C21.3848 16.5534 21.4668 16.8045 21.6034 17.1673H19.5765C19.7406 16.7208 19.8236 16.5534 19.8236 14.9887V7.24427C19.8236 5.98534 19.7406 5.42625 19.4934 5.09025L21.3848 4.58808V12.0813L23.8764 9.70405C23.8764 9.70405 24.3695 9.25651 24.8079 8.67061H26.9705C26.8622 8.69745 26.4773 8.7823 25.1097 10.0948L22.7798 12.3302C22.7798 12.3302 24.3039 14.2187 25.6191 15.7007C26.6326 16.8191 27.2722 16.9429 27.7379 16.9429C27.82 16.9429 27.9292 16.9161 28.0113 16.886C27.6013 17.1962 26.9989 17.3637 26.3407 17.3637ZM15.5183 17.4761C14.5594 17.4761 13.71 17.2797 12.8332 16.9158V15.6313C13.7372 16.1324 14.8601 16.4393 15.5707 16.4393C16.3381 16.4393 17.2971 16.244 17.2971 15.3233C17.2971 14.4001 16.3381 13.9527 15.2974 13.4493C14.1472 12.8913 12.9151 12.2774 12.9151 10.85C12.9151 9.11566 14.5594 8.3623 16.0364 8.3623C16.8313 8.3623 17.625 8.5576 18.3104 8.94937V10.2072C17.6512 9.67364 16.8586 9.36782 16.0102 9.36782C15.1858 9.36782 14.3932 9.70374 14.3932 10.4594C14.3932 11.3522 15.4351 11.8567 16.5285 12.4159C17.6808 13.0051 18.8855 13.6725 18.8855 14.9572C18.8855 16.8321 17.051 17.4761 15.5183 17.4761ZM11.8841 19.677C10.5011 21.4426 6.05575 21.6234 4.79635 19.9269C3.93916 18.7718 5.08825 17.7797 6.32366 17.2305C5.47307 16.9973 5.03788 16.3444 5.03788 15.7149C5.03788 15.0709 5.47637 14.5129 6.29744 14.1201C5.20194 13.7015 4.44539 12.6402 4.44539 11.4426C4.44539 9.7049 5.77045 8.3623 7.91656 8.3623C8.3812 8.3623 8.9268 8.47275 9.39141 8.61337C9.77739 8.72389 10.1873 8.80867 10.6245 8.80867C11.1451 8.80867 11.7474 8.78199 12.2394 8.64129V9.76075C11.9661 9.70374 11.0905 9.64688 10.6245 9.64688C11.062 10.1513 11.3102 10.85 11.3102 11.5219C11.3102 13.0878 10.1032 14.4002 7.96789 14.4002C7.78533 14.4002 7.58749 14.3912 7.35682 14.3633C7.13266 14.408 6.93152 14.5074 6.77519 14.638C6.54235 14.831 6.43406 15.0766 6.43406 15.2953C6.43406 15.658 6.61114 15.9225 7.5022 15.9939C9.41655 16.148 10.5885 16.1747 11.3746 16.5431C12.2318 16.9459 12.9676 18.2941 11.8841 19.677ZM20.4108 0.39386C14.2588 0.39386 1.00153 1.71752 1.00153 11.8112C1.00153 18.6717 7.72855 27.6069 15.1684 27.6069C17.5747 27.6069 19.6345 26.7354 21.5618 25.2911C26.1603 21.8001 31.9931 13.973 31.9931 7.89386C31.9931 3.34031 28.8498 0.39386 20.4108 0.39386Z" fill="white"/>
</g>
</svg>
