<svg width="41" height="30" viewBox="0 0 41 30" fill="none" xmlns="http://www.w3.org/2000/svg">
<g clip-path="url(#clip0_5322_10753)">
<path d="M39.9326 13.2769H25.8896V9.69336H39.9326V13.2769Z" stroke="white" stroke-width="0.495495"/>
<path d="M38.3277 13.2771H25.8896V4.11932H38.3277V13.2771Z" stroke="white" stroke-width="0.495495"/>
<path d="M33.1117 13.277H25.8896V0.535645H33.1117V13.277Z" stroke="white" stroke-width="0.495495"/>
<path d="M34.7166 13.2768H25.8896V2.12811H34.7166V13.2768Z" stroke="white" stroke-width="0.495495"/>
<path d="M25.8896 2.12811V13.2768H33.1117V2.12811H25.8896Z" stroke="white" stroke-width="0.495495"/>
<path d="M18.6676 13.2772H25.8897V15.268H18.6676V13.2772Z" fill="white" stroke="white" stroke-width="0.495495"/>
<path d="M25.8896 4.11932V13.2771H34.7166V4.11932H25.8896Z" stroke="white" stroke-width="0.495495"/>
<path d="M25.8896 4.11932V13.2771H33.1117V4.11932H25.8896Z" stroke="white" stroke-width="0.495495"/>
<path d="M30.3032 13.2767H25.8896V7.70233H30.3032V13.2767Z" stroke="white" stroke-width="0.495495"/>
<path d="M25.8896 9.69336V13.2769H38.3277V9.69336H25.8896Z" stroke="white" stroke-width="0.495495"/>
<path d="M25.8896 9.69336V13.2769H34.7166V9.69336H25.8896Z" stroke="white" stroke-width="0.495495"/>
<path d="M25.8896 9.69336V13.2769H33.1117V9.69336H25.8896Z" stroke="white" stroke-width="0.495495"/>
<path d="M25.8896 9.69336V13.2769H30.3032V9.69336H25.8896Z" stroke="white" stroke-width="0.495495"/>
<path d="M27.3032 20.0638C26.0722 20.281 25.4156 21.204 25.4156 22.8057C25.4156 24.4346 26.291 25.5205 27.5768 25.5205C28.206 25.5205 28.7531 25.3033 29.9021 24.7332C29.9021 26.0635 29.9021 26.0635 29.9021 26.0635C28.5069 26.715 27.6862 26.8779 26.592 26.8779C25.3609 26.8779 24.4855 26.5792 23.8016 25.8463C23.0903 25.1404 22.7074 24.2174 22.7074 23.1587C22.7074 20.8511 24.4581 19.2494 27.0023 19.2494C28.671 19.2494 29.8473 20.0367 29.8473 21.1497C29.8473 21.8827 29.3002 22.3985 28.5069 22.3985C28.0966 22.3985 27.7683 22.2628 27.3032 22.0184" fill="white"/>
<path d="M21.148 23.1587C22.2696 21.7741 22.6799 21.204 22.6799 20.5253C22.6799 19.8466 22.1328 19.2494 21.3668 19.2494C20.9291 19.2494 20.5188 19.4937 20.3273 19.7109C20.3273 22.5614 20.3273 22.5614 20.3273 22.5614C18.4944 25.0047 18.4944 25.0047 18.4944 25.0047C18.4944 19.4666 18.4944 19.4666 18.4944 19.4666C16.7436 19.4666 16.7436 19.4666 16.7436 19.4666C13.8438 24.2174 13.8438 24.2174 13.8438 24.2174C13.8438 19.4666 13.8438 19.4666 13.8438 19.4666C12.859 19.4666 12.859 19.4666 12.859 19.4666C10.2054 20.0638 10.2054 20.0638 10.2054 20.0638C10.2054 20.7425 10.2054 20.7425 10.2054 20.7425C11.6553 20.8782 11.6553 20.8782 11.6553 20.8782C11.6553 26.7693 11.6553 26.7693 11.6553 26.7693C13.4882 26.7693 13.4882 26.7693 13.4882 26.7693C16.2785 22.2085 16.2785 22.2085 16.2785 22.2085C16.2785 26.7693 16.2785 26.7693 16.2785 26.7693C18.3303 26.7693 18.3303 26.7693 18.3303 26.7693" fill="white"/>
<path fill-rule="evenodd" clip-rule="evenodd" d="M5.85574 29.3211L4.65206 29.0496V26.7149C4.69337 26.7172 4.7345 26.7195 4.77532 26.7217C5.22116 26.7464 5.63248 26.7692 5.8831 26.7692C8.34519 26.7692 9.95919 25.1675 9.95919 22.8328C9.95919 20.7967 8.75551 19.3308 7.16886 19.3308C6.45757 19.3308 5.99254 19.4664 4.65206 20.2809V19.3036H3.88609L1.01367 20.1723V20.851H2.21735V29.0496L1.1231 29.3211V29.9998H5.85574V29.3211ZM5.0624 25.8462H4.65206V20.9596C5.0624 20.8782 5.30861 20.851 5.47275 20.851C6.70378 20.851 7.36032 21.6654 7.36032 23.1585C7.36032 24.9503 6.53967 25.8462 5.0624 25.8462Z" fill="white"/>
</g>
<defs>
<clipPath id="clip0_5322_10753">
<rect width="40" height="30" fill="white" transform="translate(0.5)"/>
</clipPath>
</defs>
</svg>
