<svg width="95" height="18" viewBox="0 0 95 18" fill="none" xmlns="http://www.w3.org/2000/svg">
<g clip-path="url(#clip0_5322_10777)">
<path d="M1.23206 4.34518C1.23206 6.77228 3.35548 7.59199 5.27322 8.33231C6.85225 8.94187 8.29184 9.4976 8.29184 10.8524C8.29184 12.6714 5.57759 13.941 2.43246 11.8147C2.39891 11.7924 2.36741 11.7712 2.33764 11.7511C2.10567 11.5948 1.97842 11.5091 1.79781 11.5091C1.41353 11.5091 1.34462 11.7064 1.34462 11.9038V13.0197C1.34462 13.2171 1.3912 13.3281 1.61731 13.4591C5.41747 15.1889 10.8266 14.1811 10.8266 9.77928C10.8266 7.50911 8.57595 6.59254 6.59615 5.78628C5.04169 5.15324 3.65422 4.5882 3.65422 3.48937C3.65422 2.48258 4.64987 1.80411 5.91529 1.80411C7.04777 1.80411 7.90756 2.177 8.81293 2.81363L8.82001 2.81854C9.06535 2.98853 9.22245 3.09739 9.42339 3.09739C9.67272 3.09739 9.74068 2.94278 9.74068 2.74542V1.4767C9.74068 1.27753 9.69607 1.16748 9.49127 1.08108C8.72178 0.796417 7.36413 0.509934 5.87065 0.509934C2.86236 0.509934 1.23206 2.30796 1.23206 4.34518Z" fill="white"/>
<path d="M86.4737 4.19178C87.5324 4.19178 88.7251 0.360168 86.7665 0.360168H85.7086C85.4613 0.360168 85.4166 0.532968 85.4166 0.663933C85.4166 0.755978 85.4998 0.896319 85.6076 1.07837C85.8067 1.41435 86.09 1.8924 86.09 2.47106C86.09 3.05734 85.942 3.40217 85.836 3.64901C85.777 3.78662 85.731 3.89377 85.731 3.99533C85.731 4.10538 85.8435 4.19178 86.0006 4.19178H86.4737Z" fill="white"/>
<path d="M22.5104 1.66865C22.5104 1.00746 22.981 0.435403 23.9641 0.435403C24.9034 0.435403 25.3731 1.00746 25.3731 1.66865C25.3731 2.45989 24.8365 2.98921 23.9641 2.98921C23.0917 2.98921 22.5104 2.45989 22.5104 1.66865Z" fill="white"/>
<path fill-rule="evenodd" clip-rule="evenodd" d="M46.9611 0.775501C46.9611 0.62089 47.0736 0.509934 47.1871 0.509934H49.3609C49.5181 0.509934 49.6307 0.61998 49.6307 0.775501V5.14552C50.0615 4.79446 51.0571 4.02414 52.5982 4.02414C54.9301 4.02414 56.4003 6.00134 56.4003 8.637C56.4003 12.0184 53.9791 14.2593 50.9902 14.2593C49.3599 14.2593 48.1595 13.7091 47.3676 13.1153C47.028 12.8751 46.9601 12.4604 46.9601 12.1075V0.775501H46.9611ZM51.1708 13.0731C50.5148 13.0731 50.1752 12.964 49.95 12.833L49.949 12.8339C49.6773 12.6565 49.6307 12.4611 49.6307 12.261V6.33118C49.6436 6.32205 49.6569 6.31263 49.6705 6.30295C50.0163 6.05737 50.5913 5.64907 51.3746 5.64907C53.4348 5.64907 53.6386 8.24201 53.6386 9.16599C53.6386 11.6244 52.6206 13.0731 51.1708 13.0731Z" fill="white"/>
<path fill-rule="evenodd" clip-rule="evenodd" d="M16.652 3.9665H16.6511C15.4305 3.96663 14.0297 4.20944 13.1255 4.64587C12.9156 4.74675 12.7847 4.95043 12.7878 5.17155V6.15651C12.7878 6.46573 13.0362 6.59488 13.1721 6.59488C13.3756 6.59488 13.5405 6.45965 13.6675 6.35547C13.7101 6.32057 13.7484 6.28915 13.7824 6.26747C14.617 5.72087 15.4536 5.34617 16.5618 5.34617C17.9388 5.34617 18.1426 6.22199 18.1426 7.29607L18.1377 7.3361C18.1377 7.83816 17.9621 7.9309 15.997 8.17282C14.7985 8.3256 12.0649 8.85127 12.0649 11.2377C12.0649 13.2086 13.6913 14.2599 15.5894 14.2599C16.6287 14.2599 17.4875 13.8197 18.2105 13.2086L18.2552 13.777C18.2552 13.9307 18.3686 14.0398 18.4812 14.0398H20.5366C20.6948 14.0398 20.8083 13.9307 20.8083 13.777V6.96776C20.8083 5.19356 19.8361 3.96675 16.652 3.9665ZM16.2832 12.9944C17.3265 12.9944 18.098 12.224 18.098 11.9376V9.03811C15.5797 9.03811 14.6278 10.1359 14.6278 11.3237C14.6278 12.1577 15.0819 12.9944 16.2832 12.9944Z" fill="white"/>
<path d="M27.5401 13.7715V4.44943H27.5411C27.5411 4.29755 27.6537 4.18568 27.7672 4.18568H29.8779C30.037 4.18568 30.1505 4.29755 30.1505 4.44943V4.95691H30.1932C30.8745 4.56038 32.1903 3.9665 33.4383 3.9665C35.617 3.9665 36.5932 5.19792 36.5932 6.97868V13.7725C36.5932 13.9225 36.4787 14.0353 36.3215 14.0353H34.1428C34.0283 14.0353 33.9158 13.9225 33.9158 13.7733V7.19786C33.9158 6.45118 33.8256 5.57263 32.3272 5.57263C31.5557 5.57263 30.6484 6.01099 30.2166 6.25382V13.7715C30.2166 13.9216 30.103 14.0343 29.9448 14.0343H27.7663C27.6527 14.0343 27.5401 13.9216 27.5401 13.7715Z" fill="white"/>
<path d="M71.3719 7.12484C71.3719 6.06893 71.7562 5.40866 74.1085 6.00254C74.1804 6.01883 74.2456 6.03506 74.3068 6.05029C74.4951 6.09712 74.645 6.13442 74.8324 6.13442C74.9887 6.13442 75.1255 5.98253 75.1255 5.82793V4.5292C75.1255 4.3091 74.9673 4.1354 74.6723 4.06809C73.045 3.69339 72.0503 4.41824 71.2137 5.19038L71.1691 5.16674V4.44098C71.1691 4.28819 71.0556 4.17632 70.8974 4.17632H68.9304C68.8158 4.17632 68.7033 4.28819 68.7033 4.44098V13.7712C68.7033 13.9213 68.8158 14.0341 68.9304 14.0341H71.0993C71.2594 14.0341 71.3719 13.9213 71.3719 13.7704V7.12484Z" fill="white"/>
<path d="M44.864 4.52374C41.9237 3.34051 37.9857 3.97624 37.9857 7.06027C37.9857 9.06479 39.8786 9.67421 41.483 10.1907C42.663 10.5706 43.6869 10.9002 43.6869 11.6976C43.6869 13.2083 40.994 13.3611 39.0483 11.916C38.9124 11.8068 38.7766 11.7432 38.6193 11.7432C38.3933 11.7432 38.2574 11.8296 38.2574 12.1351V12.9873C38.2574 13.2301 38.3253 13.4256 38.5971 13.5566C41.1075 14.6507 45.7228 14.6743 45.7228 10.6472C45.7228 8.62254 43.7427 8.05433 42.1026 7.58369C40.9432 7.25098 39.9537 6.96702 39.9537 6.25174C39.9537 4.83023 42.7814 4.96211 44.4118 6.03164C44.5476 6.11896 44.7272 6.20717 44.8407 6.20717C45.0668 6.20717 45.2036 6.11896 45.2036 5.81428V5.09125C45.2036 4.85024 45.1357 4.63196 44.864 4.52374Z" fill="white"/>
<path d="M93.5314 4.52374C90.5912 3.34051 86.6548 3.97624 86.6548 7.06027C86.6548 9.06479 88.5479 9.67421 90.1524 10.1907C91.3325 10.5706 92.3564 10.9002 92.3564 11.6976C92.3564 13.2083 89.6636 13.3611 87.7173 11.916C87.5817 11.8068 87.4461 11.7432 87.2881 11.7432C87.0616 11.7432 86.9268 11.8296 86.9268 12.1351V12.9873C86.9268 13.2301 86.9946 13.4256 87.2666 13.5566C89.7761 14.6507 94.3921 14.6743 94.3921 10.6463C94.3921 8.62162 92.4124 8.05341 90.7727 7.58276C89.6135 7.25005 88.6242 6.9661 88.6242 6.25083C88.6242 4.82932 91.4511 4.9612 93.0791 6.03074C93.2148 6.11804 93.3966 6.20627 93.5083 6.20627C93.7341 6.20627 93.8712 6.11804 93.8712 5.81338V5.09034C93.8712 4.84933 93.8034 4.63106 93.5314 4.52283V4.52374Z" fill="white"/>
<path d="M22.6648 4.45524V13.771C22.6648 13.9211 22.7773 14.0338 22.888 14.0338H25.0277C25.183 14.0338 25.2955 13.9211 25.2955 13.771V4.45615C25.2955 4.30336 25.184 4.1915 25.0277 4.1915H22.888C22.7773 4.1915 22.6648 4.30336 22.6648 4.45524Z" fill="white"/>
<path d="M66.7692 4.45615V13.7782C66.7692 13.9284 66.6557 14.0402 66.5422 14.0402H64.4324C64.2733 14.0402 64.1607 13.9284 64.1607 13.7782V13.2717H64.1151C63.4339 13.6655 62.118 14.2585 60.871 14.2585C58.6924 14.2585 57.7162 13.0279 57.7162 11.2481V4.45615C57.7162 4.30336 57.8298 4.1915 57.9899 4.1915H60.1674C60.28 4.1915 60.3936 4.30336 60.3936 4.45615V11.0289C60.3936 11.7784 60.4858 12.655 61.9822 12.655C62.7537 12.655 63.6619 12.2158 64.0928 11.9738V4.45615C64.0928 4.30336 64.2054 4.1915 64.3645 4.1915H66.5422C66.6557 4.1915 66.7692 4.30336 66.7692 4.45615Z" fill="white"/>
<path d="M80.598 10.566L80.7336 10.9816L80.9154 10.566L83.1336 4.43342C83.1791 4.28063 83.2924 4.1915 83.4495 4.1915H85.0583C85.1731 4.19398 85.2641 4.28261 85.2617 4.38976C85.2617 4.44914 85.2415 4.49823 85.2144 4.56392C85.2012 4.59581 85.1864 4.63162 85.1716 4.67443L81.4586 13.6755C80.3036 16.4576 79.013 17.6399 76.6122 17.6399C75.6165 17.6399 75.435 17.3343 75.435 17.0706V15.8209C75.435 15.669 75.5719 15.5154 75.7291 15.5154C75.9246 15.5154 76.0778 15.5556 76.2658 15.605C76.3176 15.6186 76.372 15.6329 76.4307 15.6472C78.2202 16.1283 80.0779 15.0561 79.443 13.5655L75.6844 4.73991C75.5932 4.52164 75.5709 4.45524 75.5709 4.38976C75.5709 4.2588 75.6388 4.1915 75.7747 4.1915H78.0846C78.2888 4.1915 78.3782 4.2588 78.446 4.43342L80.598 10.566Z" fill="white"/>
</g>
<defs>
<clipPath id="clip0_5322_10777">
<rect width="94" height="18" fill="white" transform="translate(0.5)"/>
</clipPath>
</defs>
</svg>
